<?xml version="1.0" standalone="no"?>
<!DOCTYPE svg PUBLIC "-//W3C//DTD SVG 20010904//EN"
 "http://www.w3.org/TR/2001/REC-SVG-20010904/DTD/svg10.dtd">
<svg version="1.0" xmlns="http://www.w3.org/2000/svg"
 width="256.000000pt" height="256.000000pt" viewBox="0 0 256.000000 256.000000"
 preserveAspectRatio="xMidYMid meet">
<metadata>
Created by potrace 1.14, written by Peter Selinger 2001-2017
</metadata>
<g transform="translate(0.000000,256.000000) scale(0.100000,-0.100000)"
fill="#000000" stroke="none">
<path d="M1145 2338 c-71 -44 -242 -148 -380 -231 -137 -84 -299 -182 -360
-219 -60 -37 -133 -81 -162 -97 -29 -17 -77 -47 -108 -67 l-57 -36 109 -65
c59 -35 169 -101 243 -147 l135 -82 3 -278 2 -278 40 5 40 4 0 -144 c0 -130
-2 -146 -20 -165 -28 -30 -26 -83 3 -111 l23 -22 -39 -95 c-21 -52 -45 -111
-52 -131 l-13 -37 134 -1 c74 0 134 1 134 4 0 3 -24 64 -54 135 -30 72 -50
130 -45 130 11 0 40 44 44 67 1 10 -6 33 -16 52 -16 28 -20 54 -20 155 0 66 0
131 0 143 1 19 5 21 44 17 81 -9 203 -45 284 -85 78 -37 183 -124 212 -174 11
-19 12 -19 33 9 82 109 180 171 353 222 75 22 111 27 212 28 l123 1 2 275 3
274 235 142 c129 79 236 147 238 152 1 5 -12 18 -30 29 -75 45 -484 293 -628
381 -85 52 -168 103 -185 112 -16 10 -101 61 -188 114 -86 53 -158 96 -160 95
-1 0 -60 -36 -132 -81z"/>
</g>
</svg>
